<svg width="4" height="10" viewBox="0 0 4 10" fill="none" xmlns="http://www.w3.org/2000/svg">
<path d="M0.20012 3.5H3.80022C3.83667 3.49989 3.8724 3.48981 3.90356 3.47087C3.93472 3.45193 3.96014 3.42483 3.97707 3.3925C3.994 3.36016 4.00181 3.32381 3.99965 3.28736C3.99749 3.25091 3.98545 3.21574 3.96483 3.18564L2.16478 0.580994C2.09017 0.473002 1.91057 0.473002 1.83577 0.580994L0.0357158 3.18564C0.0148801 3.21568 0.00266165 3.25087 0.000387796 3.28738C-0.00188606 3.32389 0.00587169 3.36033 0.0228182 3.39273C0.0397647 3.42513 0.0652518 3.45227 0.0965103 3.47118C0.127769 3.49009 0.163603 3.50006 0.20012 3.5Z" fill="#DDDDDD"/>
<path d="M3.79988 6.5L0.199778 6.5C0.163328 6.50011 0.1276 6.51019 0.0964394 6.52913C0.0652785 6.54807 0.0398646 6.57517 0.0229335 6.6075C0.0060022 6.63984 -0.00180554 6.67619 0.000351196 6.71264C0.00250793 6.74909 0.0145471 6.78426 0.0351729 6.81436L1.83522 9.41901C1.90983 9.527 2.08943 9.527 2.16423 9.41901L3.96428 6.81436C3.98512 6.78432 3.99734 6.74913 3.99961 6.71262C4.00189 6.67611 3.99413 6.63967 3.97718 6.60727C3.96024 6.57487 3.93475 6.54773 3.90349 6.52882C3.87223 6.50991 3.8364 6.49994 3.79988 6.5Z" fill="#DDDDDD"/>
</svg>
