<svg width="21" height="5" viewBox="0 0 21 5" fill="none" xmlns="http://www.w3.org/2000/svg">
<g opacity="0.7" clip-path="url(#clip0_312_7146)">
<g clip-path="url(#clip1_312_7146)">
<path d="M12.4815 0L14.7942 2.30185C14.8865 2.39508 14.9965 2.46908 15.1176 2.51959C15.2387 2.5701 15.3687 2.5961 15.4999 2.5961C15.6312 2.5961 15.7611 2.5701 15.8822 2.51959C16.0034 2.46908 16.1133 2.39508 16.2057 2.30185L18.513 0H20.9288L16.2057 4.70684C16.1133 4.80007 16.0034 4.87408 15.8822 4.92459C15.7611 4.97509 15.6312 5.00109 15.4999 5.00109C15.3687 5.00109 15.2387 4.97509 15.1176 4.92459C14.9965 4.87408 14.8865 4.80007 14.7942 4.70684L10.071 0H12.4815Z" fill="white"/>
</g>
</g>
<defs>
<clipPath id="clip0_312_7146">
<rect width="11" height="5" fill="white" transform="translate(10)"/>
</clipPath>
<clipPath id="clip1_312_7146">
<rect width="11" height="5" fill="white" transform="translate(10)"/>
</clipPath>
</defs>
</svg>
