<svg width="17" height="16" viewBox="0 0 17 16" fill="none" xmlns="http://www.w3.org/2000/svg">
<path d="M5.9865 13.25C3.23198 13.25 0.998999 10.8995 0.998999 8C0.998999 5.1005 3.23198 2.75 5.9865 2.75C8.74102 2.75 10.974 5.1005 10.974 8C10.974 10.8995 8.74102 13.25 5.9865 13.25Z" stroke="#FFAE00" stroke-width="1.05" stroke-linecap="round" stroke-linejoin="round"/>
<path d="M7.29905 6.3199C6.96491 6.04895 6.54799 5.90071 6.1178 5.8999C5.03052 5.8999 4.14905 6.83965 4.14905 7.9999C4.14905 9.16015 5.03052 10.0999 6.1178 10.0999C6.5609 10.0999 6.96987 9.94345 7.29905 9.6799" stroke="#FFAE00" stroke-width="1.05" stroke-linecap="round" stroke-linejoin="round"/>
<path d="M5.724 2.75C7.99882 2.75 12.549 3.275 12.549 8C12.549 12.725 7.99882 13.25 5.724 13.25" stroke="#FFAE00" stroke-width="1.05"/>
</svg>
