<svg width="48" height="44" viewBox="0 0 48 44" fill="none" xmlns="http://www.w3.org/2000/svg">
<path d="M20.8619 43C9.89157 43 0.998314 33.598 0.998314 22C0.998314 10.402 9.89157 1 20.8619 1C31.8323 1 40.7256 10.402 40.7256 22C40.7256 33.598 31.8323 43 20.8619 43Z" stroke="#F5A623" stroke-width="1.6" stroke-linecap="round" stroke-linejoin="round"/>
<path d="M26.0923 15.2796C24.7616 14.1958 23.1011 13.6028 21.3878 13.5996C17.0575 13.5996 13.5469 17.3586 13.5469 21.9996C13.5469 26.6406 17.0575 30.3996 21.3878 30.3996C23.1525 30.3996 24.7813 29.7738 26.0923 28.7196" stroke="#F5A623" stroke-width="1.6" stroke-linecap="round" stroke-linejoin="round"/>
<path d="M19.8164 1C28.8763 1 46.9982 3.1 46.9982 22C46.9982 40.9 28.8763 43 19.8164 43" stroke="#F5A623" stroke-width="1.6"/>
</svg>
