<svg width="13" height="13" viewBox="0 0 13 13" fill="none" xmlns="http://www.w3.org/2000/svg">
<g clip-path="url(#clip0_312_331)">
<path d="M6.20605 3.75C7.12542 3.74694 8.02699 4.00339 8.80711 4.48986C9.58724 4.97633 10.2142 5.67308 10.6161 6.5C9.79105 8.185 8.10605 9.25 6.20605 9.25C4.30605 9.25 2.62105 8.185 1.79605 6.5C2.19786 5.67308 2.82487 4.97633 3.60499 4.48986C4.38512 4.00339 5.28669 3.74694 6.20605 3.75ZM6.20605 2.75C3.70605 2.75 1.57105 4.305 0.706055 6.5C1.57105 8.695 3.70605 10.25 6.20605 10.25C8.70605 10.25 10.8411 8.695 11.7061 6.5C10.8411 4.305 8.70605 2.75 6.20605 2.75ZM6.20605 5.25C6.53758 5.25 6.85552 5.3817 7.08994 5.61612C7.32436 5.85054 7.45605 6.16848 7.45605 6.5C7.45605 6.83152 7.32436 7.14946 7.08994 7.38388C6.85552 7.6183 6.53758 7.75 6.20605 7.75C5.87453 7.75 5.55659 7.6183 5.32217 7.38388C5.08775 7.14946 4.95605 6.83152 4.95605 6.5C4.95605 6.16848 5.08775 5.85054 5.32217 5.61612C5.55659 5.3817 5.87453 5.25 6.20605 5.25ZM6.20605 4.25C4.96605 4.25 3.95605 5.26 3.95605 6.5C3.95605 7.74 4.96605 8.75 6.20605 8.75C7.44605 8.75 8.45605 7.74 8.45605 6.5C8.45605 5.26 7.44605 4.25 6.20605 4.25Z" fill="#CCCCCC"/>
</g>
<defs>
<clipPath id="clip0_312_331">
<rect width="12" height="12" fill="white" transform="translate(0.206055 0.5)"/>
</clipPath>
</defs>
</svg>
