<svg width="25" height="25" viewBox="0 0 25 25" fill="none" xmlns="http://www.w3.org/2000/svg">
<g id="hugeicons:user-account">
<g id="Group">
<path id="Vector" d="M14.5 9.5H18.5M14.5 13H17.5" stroke="white" stroke-width="1.5" stroke-linecap="round" stroke-linejoin="round"/>
<path id="Vector_2" d="M17.5 3.5H7.5C4.73858 3.5 2.5 5.73858 2.5 8.5V16.5C2.5 19.2614 4.73858 21.5 7.5 21.5H17.5C20.2614 21.5 22.5 19.2614 22.5 16.5V8.5C22.5 5.73858 20.2614 3.5 17.5 3.5Z" stroke="white" stroke-width="1.5" stroke-linecap="round" stroke-linejoin="round"/>
<path id="Vector_3" d="M5.5 16.5C6.708 13.919 11.212 13.75 12.5 16.5M11 9.5C11 10.0304 10.7893 10.5391 10.4142 10.9142C10.0391 11.2893 9.53043 11.5 9 11.5C8.46957 11.5 7.96086 11.2893 7.58579 10.9142C7.21071 10.5391 7 10.0304 7 9.5C7 8.96957 7.21071 8.46086 7.58579 8.08579C7.96086 7.71071 8.46957 7.5 9 7.5C9.53043 7.5 10.0391 7.71071 10.4142 8.08579C10.7893 8.46086 11 8.96957 11 9.5Z" stroke="white" stroke-width="1.5" stroke-linecap="round" stroke-linejoin="round"/>
</g>
</g>
</svg>
