<svg width="10" height="10" viewBox="0 0 10 10" fill="none" xmlns="http://www.w3.org/2000/svg">
<g id="ph:check-bold">
<path id="Vector" d="M8.67456 3.32962L4.17456 7.82962C4.13537 7.86895 4.08879 7.90015 4.03751 7.92145C3.98624 7.94274 3.93126 7.9537 3.87573 7.9537C3.82021 7.9537 3.76523 7.94274 3.71395 7.92145C3.66267 7.90015 3.6161 7.86895 3.5769 7.82962L1.60815 5.86087C1.56891 5.82163 1.53778 5.77504 1.51654 5.72376C1.49531 5.67249 1.48438 5.61754 1.48438 5.56204C1.48437 5.50654 1.49531 5.45159 1.51654 5.40032C1.53778 5.34904 1.56891 5.30246 1.60815 5.26321C1.6474 5.22397 1.69398 5.19284 1.74526 5.1716C1.79653 5.15036 1.85148 5.13943 1.90698 5.13943C1.96248 5.13943 2.01743 5.15036 2.06871 5.1716C2.11998 5.19284 2.16657 5.22397 2.20581 5.26321L3.87608 6.93349L8.07761 2.73267C8.15686 2.65341 8.26435 2.60889 8.37644 2.60889C8.48852 2.60889 8.59601 2.65341 8.67526 2.73267C8.75452 2.81192 8.79904 2.91941 8.79904 3.03149C8.79904 3.14358 8.75452 3.25107 8.67526 3.33032L8.67456 3.32962Z" fill="#2A3EEF"/>
</g>
</svg>
