<svg width="21" height="21" viewBox="0 0 21 21" fill="none" xmlns="http://www.w3.org/2000/svg">
<path d="M3.963 2.93301C5.77751 1.36059 8.09897 0.496571 10.5 0.50001C16.023 0.50001 20.5 4.97701 20.5 10.5C20.5 12.636 19.83 14.616 18.69 16.24L15.5 10.5H18.5C18.5001 8.93163 18.0392 7.39781 17.1747 6.08927C16.3101 4.78072 15.0799 3.75517 13.6372 3.14013C12.1944 2.5251 10.6027 2.34771 9.05996 2.63003C7.5172 2.91234 6.09145 3.64191 4.96 4.72801L3.963 2.93301ZM17.037 18.067C15.2225 19.6394 12.901 20.5034 10.5 20.5C4.977 20.5 0.5 16.023 0.5 10.5C0.5 8.36401 1.17 6.38401 2.31 4.76001L5.5 10.5H2.5C2.49987 12.0684 2.96075 13.6022 3.82534 14.9108C4.68992 16.2193 5.92007 17.2449 7.36282 17.8599C8.80557 18.4749 10.3973 18.6523 11.94 18.37C13.4828 18.0877 14.9085 17.3581 16.04 16.272L17.037 18.067Z" fill="white"/>
</svg>
