<svg width="21" height="18" viewBox="0 0 21 18" fill="none" xmlns="http://www.w3.org/2000/svg">
<path id="edit" d="M14.5821 12.1025C14.5138 12.1729 14.5138 12.2432 14.5138 12.3135V16.2861H2.48759V3.91113H10.7214C10.7898 3.91113 10.8581 3.91113 10.9264 3.84082L12.0197 2.71582C12.1906 2.54004 12.0539 2.22363 11.8147 2.22363H2.48759C1.56513 2.22363 0.847656 2.99707 0.847656 3.91113V16.2861C0.847656 17.2354 1.56513 17.9736 2.48759 17.9736H14.5138C15.4021 17.9736 16.1537 17.2354 16.1537 16.2861V11.1885C16.1537 10.9424 15.8462 10.8018 15.6754 10.9775L14.5821 12.1025ZM19.9119 5.03613C20.6977 4.22754 20.6977 2.92676 19.9119 2.11816L18.4428 0.606445C17.657 -0.202148 16.3929 -0.202148 15.6071 0.606445L6.65577 9.81738L6.31411 13.0166C6.21162 13.9307 6.96326 14.7041 7.85155 14.5986L10.9606 14.2471L19.9119 5.03613ZM16.5637 6.09082L10.209 12.6299L7.95405 12.9111L8.22737 10.5908L14.5821 4.05176L16.5637 6.09082ZM18.7503 3.31348C18.9211 3.4541 18.9211 3.66504 18.7845 3.84082L17.7253 4.93066L15.7438 2.85645L16.7687 1.80176C16.9054 1.62598 17.1445 1.62598 17.2812 1.80176L18.7503 3.31348Z" fill="#787878"/>
</svg>
