<svg width="47" height="46" viewBox="0 0 47 46" fill="none" xmlns="http://www.w3.org/2000/svg">
<path d="M8.4649 5.59592C12.6383 1.97936 17.9776 -0.00788776 23.5 2.35305e-05C36.2029 2.35305e-05 46.5 10.2971 46.5 23C46.5 27.9128 44.959 32.4668 42.337 36.202L35 23H41.9C41.9003 19.3927 40.8403 15.865 38.8517 12.8553C36.8632 9.84564 34.0338 7.48688 30.7155 6.0723C27.3972 4.65772 23.7362 4.24973 20.1879 4.89906C16.6396 5.54839 13.3603 7.22638 10.758 9.72441L8.4649 5.59592ZM38.5351 40.4041C34.3617 44.0206 29.0224 46.0079 23.5 46C10.7971 46 0.5 35.7029 0.5 23C0.5 18.0872 2.041 13.5332 4.663 9.79801L12 23H5.1C5.0997 26.6073 6.15973 30.135 8.14827 33.1447C10.1368 36.1544 12.9662 38.5131 16.2845 39.9277C19.6028 41.3423 23.2638 41.7503 26.8121 41.1009C30.3604 40.4516 33.6397 38.7736 36.242 36.2756L38.5351 40.4041Z" fill="#F5A623"/>
</svg>
