<svg width="26" height="25" viewBox="0 0 26 25" fill="none" xmlns="http://www.w3.org/2000/svg">
<g id="carbon:purchase">
<path id="Vector" d="M22.7969 6.25V5.82812H22.375H3.625H3.20312V6.25V8.59375V9.01562H3.625H22.375H22.7969V8.59375V6.25ZM2.81846 19.5565L2.52322 19.8518L2.81846 19.5565C2.60455 19.3426 2.48438 19.0525 2.48438 18.75V6.25C2.48438 5.94749 2.60455 5.65736 2.81846 5.44346C3.03236 5.22955 3.32249 5.10938 3.625 5.10938H22.375C22.6775 5.10938 22.9676 5.22955 23.1815 5.44346C23.3955 5.65736 23.5156 5.94749 23.5156 6.25V18.75C23.5156 19.0525 23.3955 19.3426 23.1815 19.5565C22.9676 19.7705 22.6775 19.8906 22.375 19.8906H3.625C3.32249 19.8906 3.03237 19.7705 2.81846 19.5565ZM3.20312 18.75V19.1719H3.625H22.375H22.7969V18.75V10.1562V9.73438H22.375H3.625H3.20312V10.1562V18.75Z" fill="#F8F8F8" stroke="#F8F8F8" stroke-width="0.84375"/>
<path id="Vector_2" d="M5.1875 15.625H13V17.1875H5.1875V15.625Z" fill="white"/>
</g>
</svg>
