<svg width="13" height="13" viewBox="0 0 13 13" fill="none" xmlns="http://www.w3.org/2000/svg">
<g clip-path="url(#clip0_328_14866)">
<path d="M10.4026 4.1543C10.2082 4.16065 10.0242 4.24333 9.89044 4.3844C9.75665 4.52548 9.68383 4.71359 9.68777 4.90798V8.05885C9.68777 8.24843 9.76308 8.43023 9.89713 8.56428C10.0312 8.69833 10.213 8.77364 10.4026 8.77364C10.5921 8.77364 10.7739 8.69833 10.908 8.56428C11.042 8.43023 11.1173 8.24843 11.1173 8.05885V4.90798C11.1213 4.71359 11.0485 4.52548 10.9147 4.3844C10.7809 4.24333 10.5969 4.16065 10.4026 4.1543Z" fill="white"/>
<path d="M2.0638 4.1543C1.86948 4.16065 1.68548 4.24333 1.55169 4.3844C1.41789 4.52548 1.34508 4.71359 1.34902 4.90798V8.05885C1.34643 8.15528 1.36287 8.25128 1.3974 8.34135C1.43192 8.43143 1.48386 8.51381 1.55024 8.58381C1.61662 8.6538 1.69614 8.71002 1.78426 8.74927C1.87238 8.78852 1.96737 8.81002 2.0638 8.81254C2.16023 8.81002 2.25522 8.78852 2.34334 8.74927C2.43146 8.71002 2.51098 8.6538 2.57736 8.58381C2.64374 8.51381 2.69568 8.43143 2.73021 8.34135C2.76473 8.25128 2.78117 8.15528 2.77858 8.05885V4.90798C2.78252 4.71359 2.70971 4.52548 2.57592 4.3844C2.44212 4.24333 2.25813 4.16065 2.0638 4.1543Z" fill="white"/>
<path d="M3.29395 4.01814H9.42065C9.4215 3.75542 9.38716 3.49376 9.31854 3.24015C9.12155 2.49995 8.65729 1.85898 8.0154 1.44104L7.90842 1.37296L7.79659 1.30975L7.91815 1.07635L8.30228 0.346985C8.31476 0.321638 8.31719 0.292508 8.30907 0.265448C8.30095 0.238387 8.28289 0.215402 8.25852 0.201111C8.24268 0.196236 8.22574 0.196236 8.20989 0.201111H8.18072C8.16792 0.205694 8.15617 0.212786 8.14615 0.22197C8.13613 0.231155 8.12805 0.242248 8.12237 0.254598L7.73337 0.993692L7.61181 1.22223L7.49511 1.15902L7.37841 1.11039C6.63931 0.837991 5.8273 0.837991 5.08819 1.11039L4.97149 1.15902L4.8548 1.20764L4.75268 0.983967L4.34424 0.244873C4.33753 0.229174 4.32681 0.215518 4.31315 0.205275C4.2995 0.195033 4.28339 0.188565 4.26644 0.186523L4.21781 0.186523C4.19428 0.201584 4.17723 0.224909 4.17004 0.251906C4.16284 0.278904 4.166 0.307618 4.17891 0.332397L4.56305 1.06177L4.68461 1.29517L4.57277 1.35838L4.4658 1.42645C3.824 1.84554 3.35852 2.4858 3.1578 3.22556C3.09316 3.47984 3.0605 3.74119 3.06055 4.00356H3.29395V4.01814ZM4.75268 2.21903C4.79188 2.21879 4.83044 2.22885 4.86452 2.24821C4.91049 2.27238 4.9489 2.30879 4.9755 2.3534C5.00209 2.39802 5.01585 2.44912 5.01526 2.50106V2.53509C5.0104 2.60177 4.98076 2.6642 4.93215 2.7101C4.88355 2.75601 4.81953 2.78204 4.75268 2.78308C4.67789 2.78308 4.60615 2.75337 4.55326 2.70048C4.50037 2.64759 4.47066 2.57585 4.47066 2.50106C4.47066 2.42626 4.50037 2.35453 4.55326 2.30164C4.60615 2.24875 4.67789 2.21903 4.75268 2.21903ZM7.69447 2.21903C7.76927 2.21903 7.841 2.24875 7.89389 2.30164C7.94678 2.35453 7.9765 2.42626 7.9765 2.50106C7.9765 2.57585 7.94678 2.64759 7.89389 2.70048C7.841 2.75337 7.76927 2.78308 7.69447 2.78308C7.62763 2.78204 7.5636 2.75601 7.515 2.7101C7.4664 2.6642 7.43675 2.60177 7.4319 2.53509C7.4319 2.53509 7.4319 2.53509 7.4319 2.50106C7.43119 2.44849 7.44544 2.39681 7.47299 2.35204C7.50054 2.30727 7.54026 2.27126 7.5875 2.24821C7.62301 2.22801 7.66336 2.21792 7.7042 2.21903H7.69447Z" fill="white"/>
<path d="M9.16811 4.28564H3.04627V9.17242C3.04103 9.38182 3.1189 9.58479 3.26286 9.73695C3.40682 9.88911 3.60517 9.97809 3.81454 9.98445H4.32996V11.6523C4.32671 11.7487 4.34251 11.8448 4.37644 11.9352C4.41036 12.0255 4.46176 12.1082 4.5277 12.1787C4.59363 12.2491 4.6728 12.3059 4.76068 12.3457C4.84857 12.3856 4.94344 12.4077 5.03988 12.4108C5.13673 12.4083 5.23213 12.3867 5.32057 12.3471C5.40902 12.3075 5.48876 12.2509 5.55521 12.1804C5.62165 12.1099 5.67348 12.0269 5.70771 11.9363C5.74195 11.8456 5.7579 11.7491 5.75466 11.6523V9.98445H6.72715V11.6523C6.72715 11.8418 6.80246 12.0237 6.93651 12.1577C7.07056 12.2918 7.25236 12.3671 7.44194 12.3671C7.63151 12.3671 7.81331 12.2918 7.94736 12.1577C8.08141 12.0237 8.15672 11.8418 8.15672 11.6523V9.98445H8.64296C8.85234 9.97809 9.05068 9.88911 9.19464 9.73695C9.3386 9.58479 9.41647 9.38182 9.41123 9.17242V4.30996H9.15838L9.16811 4.28564Z" fill="white"/>
</g>
<defs>
<clipPath id="clip0_328_14866">
<rect width="12.2242" height="12.2242" fill="white" transform="translate(0.121216 0.186523)"/>
</clipPath>
</defs>
</svg>
