<svg width="27" height="27" viewBox="0 0 27 27" fill="none" xmlns="http://www.w3.org/2000/svg">
<g id="ic:baseline-history">
<path id="Vector" d="M4.5 14H5V13.5C5 10.9473 6.01406 8.49913 7.8191 6.6941C9.62414 4.88906 12.0723 3.875 14.625 3.875C17.1777 3.875 19.6259 4.88906 21.4309 6.6941C23.2359 8.49913 24.25 10.9473 24.25 13.5C24.25 16.0527 23.2359 18.5009 21.4309 20.3059C19.6259 22.1109 17.1777 23.125 14.625 23.125H14.6244C13.3608 23.1266 12.1093 22.878 10.9423 22.3935C9.92894 21.9729 8.99663 21.3817 8.18532 20.6468L9.07675 19.7554C10.5488 21.071 12.4954 21.875 14.625 21.875C19.2549 21.875 23 18.1299 23 13.5C23 8.87011 19.2549 5.125 14.625 5.125C9.99511 5.125 6.25 8.87011 6.25 13.5V14H6.75H8.91577L5.61986 17.2878L2.33211 14H4.5ZM14.6875 13.7812V14.0657L14.9321 14.2111L18.4395 16.2955L18.1407 16.7976L14 14.3403V9.5H14.6875V13.7812Z" fill="#333333" stroke="#333333"/>
</g>
</svg>
