<svg width="28" height="27" viewBox="0 0 28 27" fill="none" xmlns="http://www.w3.org/2000/svg">
<g id="ic:baseline-history">
<path id="Vector" d="M5 14H5.5V13.5C5.5 10.9473 6.51406 8.49913 8.3191 6.6941C10.1241 4.88906 12.5723 3.875 15.125 3.875C17.6777 3.875 20.1259 4.88906 21.9309 6.6941C23.7359 8.49913 24.75 10.9473 24.75 13.5C24.75 16.0527 23.7359 18.5009 21.9309 20.3059C20.1259 22.1109 17.6777 23.125 15.125 23.125H15.1244C13.8608 23.1266 12.6093 22.878 11.4423 22.3935C10.4289 21.9729 9.49663 21.3817 8.68532 20.6468L9.57675 19.7554C11.0488 21.071 12.9954 21.875 15.125 21.875C19.7549 21.875 23.5 18.1299 23.5 13.5C23.5 8.87011 19.7549 5.125 15.125 5.125C10.4951 5.125 6.75 8.87011 6.75 13.5V14H7.25H9.41577L6.11986 17.2878L2.83211 14H5ZM15.1875 13.7812V14.0657L15.4321 14.2111L18.9395 16.2955L18.6407 16.7976L14.5 14.3403V9.5H15.1875V13.7812Z" fill="#F8F8F8" stroke="#F8F8F8"/>
</g>
</svg>
