<svg width="11" height="12" viewBox="0 0 11 12" fill="none" xmlns="http://www.w3.org/2000/svg">
<path id="Vector" d="M9.36246 1.53965H7.71772V0.717285H6.89535V1.53965H3.60588V0.717285H2.78351V1.53965H1.13877C0.686472 1.53965 0.316406 1.90972 0.316406 2.36202V10.5857C0.316406 11.038 0.686472 11.4081 1.13877 11.4081H9.36246C9.81476 11.4081 10.1848 11.038 10.1848 10.5857V2.36202C10.1848 1.90972 9.81476 1.53965 9.36246 1.53965ZM9.36246 10.5857H1.13877V4.82913H9.36246V10.5857ZM9.36246 4.00676H1.13877V2.36202H2.78351V3.18439H3.60588V2.36202H6.89535V3.18439H7.71772V2.36202H9.36246V4.00676Z" fill="#787878"/>
</svg>
