<svg width="25" height="24" viewBox="0 0 25 24" fill="none" xmlns="http://www.w3.org/2000/svg">
<g id="hugeicons:user-account">
<g id="Group">
<path id="Vector" d="M14.5 9H18.5M14.5 12.5H17.5" stroke="#333333" stroke-width="1.5" stroke-linecap="round" stroke-linejoin="round"/>
<path id="Vector_2" d="M17.5 3H7.5C4.73858 3 2.5 5.23858 2.5 8V16C2.5 18.7614 4.73858 21 7.5 21H17.5C20.2614 21 22.5 18.7614 22.5 16V8C22.5 5.23858 20.2614 3 17.5 3Z" stroke="#333333" stroke-width="1.5" stroke-linecap="round" stroke-linejoin="round"/>
<path id="Vector_3" d="M5.5 16C6.708 13.419 11.212 13.25 12.5 16M11 9C11 9.53043 10.7893 10.0391 10.4142 10.4142C10.0391 10.7893 9.53043 11 9 11C8.46957 11 7.96086 10.7893 7.58579 10.4142C7.21071 10.0391 7 9.53043 7 9C7 8.46957 7.21071 7.96086 7.58579 7.58579C7.96086 7.21071 8.46957 7 9 7C9.53043 7 10.0391 7.21071 10.4142 7.58579C10.7893 7.96086 11 8.46957 11 9Z" stroke="#333333" stroke-width="1.5" stroke-linecap="round" stroke-linejoin="round"/>
</g>
</g>
</svg>
