<svg width="25" height="25" viewBox="0 0 25 25" fill="none" xmlns="http://www.w3.org/2000/svg">
<g id="iconoir:coins">
<g id="Group">
<path id="Vector" d="M11.5 15C11.5 16.38 13.739 17.5 16.5 17.5C19.261 17.5 21.5 16.38 21.5 15M3.5 10C3.5 11.38 5.739 12.5 8.5 12.5C9.626 12.5 10.665 12.314 11.5 12M3.5 13.5C3.5 14.88 5.739 16 8.5 16C9.626 16 10.664 15.814 11.5 15.5M16.5 13.5C13.739 13.5 11.5 12.38 11.5 11C11.5 9.62 13.739 8.5 16.5 8.5C19.261 8.5 21.5 9.62 21.5 11C21.5 12.38 19.261 13.5 16.5 13.5Z" stroke="#F8F8F8" stroke-width="1.5" stroke-linecap="round" stroke-linejoin="round"/>
<path id="Vector_2" d="M3.5 6V17C3.5 18.38 5.739 19.5 8.5 19.5C9.626 19.5 10.664 19.314 11.5 19M11.5 19V11M11.5 19C11.5 20.38 13.739 21.5 16.5 21.5C19.261 21.5 21.5 20.38 21.5 19V11M13.5 9V6" stroke="#F8F8F8" stroke-width="1.5" stroke-linecap="round" stroke-linejoin="round"/>
<path id="Vector_3" d="M8.5 8.5C5.739 8.5 3.5 7.38 3.5 6C3.5 4.62 5.739 3.5 8.5 3.5C11.261 3.5 13.5 4.62 13.5 6C13.5 7.38 11.261 8.5 8.5 8.5Z" stroke="#F8F8F8" stroke-width="1.5" stroke-linecap="round" stroke-linejoin="round"/>
</g>
</g>
</svg>
