<svg width="13" height="13" viewBox="0 0 13 13" fill="none" xmlns="http://www.w3.org/2000/svg">
<g clip-path="url(#clip0_365_15359)">
<path d="M9.76335 6.68087C9.78053 8.53081 11.3862 9.14641 11.404 9.15425C11.3904 9.19764 11.1474 10.0315 10.5581 10.8929C10.0485 11.6376 9.51976 12.3795 8.68675 12.3948C7.86824 12.4099 7.60504 11.9095 6.66924 11.9095C5.73373 11.9095 5.44131 12.3795 4.6665 12.4099C3.86243 12.4404 3.25012 11.6047 2.73641 10.8627C1.68665 9.34507 0.884423 6.57416 1.96162 4.70375C2.49674 3.7749 3.45305 3.18671 4.49104 3.17163C5.28062 3.15656 6.02585 3.70282 6.50855 3.70282C6.99094 3.70282 7.89657 3.0459 8.84864 3.14238C9.24722 3.15897 10.366 3.30338 11.0844 4.35494C11.0265 4.39083 9.74947 5.13428 9.76335 6.68087ZM8.22505 2.13831C8.65193 1.62158 8.93925 0.902251 8.86087 0.186523C8.24555 0.211254 7.50149 0.596555 7.06013 1.113C6.6646 1.57033 6.31819 2.30232 6.41166 3.00388C7.0975 3.05694 7.79815 2.65536 8.22505 2.13831Z" fill="#FFFFFE"/>
</g>
<defs>
<clipPath id="clip0_365_15359">
<rect width="12.2242" height="12.2242" fill="white" transform="translate(0.314697 0.186523)"/>
</clipPath>
</defs>
</svg>
