<svg width="21" height="17" viewBox="0 0 21 17" fill="none" xmlns="http://www.w3.org/2000/svg">
<path d="M13.5 1.5V3.5M13.5 7.5V9.5M13.5 13.5V15.5M3.5 1.5H17.5C18.0304 1.5 18.5391 1.71071 18.9142 2.08579C19.2893 2.46086 19.5 2.96957 19.5 3.5V6.5C18.9696 6.5 18.4609 6.71071 18.0858 7.08579C17.7107 7.46086 17.5 7.96957 17.5 8.5C17.5 9.03043 17.7107 9.53914 18.0858 9.91421C18.4609 10.2893 18.9696 10.5 19.5 10.5V13.5C19.5 14.0304 19.2893 14.5391 18.9142 14.9142C18.5391 15.2893 18.0304 15.5 17.5 15.5H3.5C2.96957 15.5 2.46086 15.2893 2.08579 14.9142C1.71071 14.5391 1.5 14.0304 1.5 13.5V10.5C2.03043 10.5 2.53914 10.2893 2.91421 9.91421C3.28929 9.53914 3.5 9.03043 3.5 8.5C3.5 7.96957 3.28929 7.46086 2.91421 7.08579C2.53914 6.71071 2.03043 6.5 1.5 6.5V3.5C1.5 2.96957 1.71071 2.46086 2.08579 2.08579C2.46086 1.71071 2.96957 1.5 3.5 1.5Z" stroke="white" stroke-width="2" stroke-linecap="round" stroke-linejoin="round"/>
</svg>
