<svg width="23" height="16" viewBox="0 0 23 16" fill="none" xmlns="http://www.w3.org/2000/svg">
<path d="M14.038 2.87227C13.0247 2.4074 11.9275 2.06998 10.7846 1.87503C10.7746 1.87472 10.7646 1.87657 10.7554 1.88046C10.7462 1.88434 10.7379 1.89017 10.7313 1.89753C10.5941 2.14496 10.4341 2.46738 10.3274 2.71481C9.11522 2.53486 7.88242 2.53486 6.6702 2.71481C6.56353 2.45988 6.40353 2.14496 6.25876 1.89753C6.25114 1.88253 6.22828 1.87503 6.20542 1.87503C5.06254 2.06998 3.97298 2.4074 2.952 2.87227C2.94438 2.87227 2.93676 2.87977 2.92914 2.88727C0.856706 5.93897 0.285262 8.90819 0.567174 11.8474C0.567174 11.8624 0.574794 11.8774 0.590032 11.8849C1.9615 12.8747 3.27963 13.4745 4.58252 13.8719C4.60538 13.8794 4.62824 13.8719 4.63586 13.8569C4.94063 13.4445 5.21492 13.0096 5.45112 12.5522C5.46636 12.5222 5.45112 12.4923 5.42064 12.4848C4.98634 12.3198 4.5749 12.1249 4.17108 11.8999C4.14061 11.8849 4.14061 11.8399 4.16346 11.8174C4.24728 11.7574 4.33109 11.69 4.4149 11.63C4.43014 11.615 4.453 11.615 4.46823 11.6225C7.08926 12.7997 9.916 12.7997 12.5065 11.6225C12.5218 11.615 12.5446 11.615 12.5599 11.63C12.6437 11.6975 12.7275 11.7574 12.8113 11.8249C12.8418 11.8474 12.8418 11.8924 12.8037 11.9074C12.4075 12.1398 11.9884 12.3273 11.5541 12.4923C11.5237 12.4998 11.516 12.5372 11.5237 12.5597C11.7675 13.0171 12.0418 13.452 12.3389 13.8644C12.3618 13.8719 12.3846 13.8794 12.4075 13.8719C13.718 13.4745 15.0361 12.8747 16.4076 11.8849C16.4228 11.8774 16.4305 11.8624 16.4305 11.8474C16.7657 8.45081 15.8743 5.50408 14.0685 2.88727C14.0609 2.87977 14.0533 2.87227 14.038 2.87227ZM5.84732 10.0554C5.06254 10.0554 4.40728 9.34308 4.40728 8.46581C4.40728 7.58854 5.0473 6.87622 5.84732 6.87622C6.65496 6.87622 7.29498 7.59604 7.28736 8.46581C7.28736 9.34308 6.64734 10.0554 5.84732 10.0554ZM11.1579 10.0554C10.3732 10.0554 9.7179 9.34308 9.7179 8.46581C9.7179 7.58854 10.3579 6.87622 11.1579 6.87622C11.9656 6.87622 12.6056 7.59604 12.598 8.46581C12.598 9.34308 11.9656 10.0554 11.1579 10.0554Z" fill="#DDDDDD"/>
</svg>
