<svg width="11" height="16" viewBox="0 0 11 16" fill="none" xmlns="http://www.w3.org/2000/svg">
<path id="Vector" d="M3.02829 0.379933C2.98871 0.372394 2.94792 0.373508 2.90883 0.383193C2.86974 0.392879 2.83331 0.410898 2.80214 0.435966C2.77097 0.461035 2.74582 0.492536 2.72849 0.528224C2.71116 0.563911 2.70207 0.602908 2.70187 0.642434V6.73371L0.466041 4.5412C0.437326 4.51345 0.402747 4.49222 0.364745 4.47901C0.326743 4.4658 0.286246 4.46093 0.246114 4.46475C0.205982 4.46856 0.167194 4.48097 0.132489 4.50109C0.0977846 4.52121 0.0680102 4.54856 0.0452689 4.5812C0.015464 4.62552 -0.00028659 4.6775 3.94817e-06 4.73058V11.0206C0.000191335 11.4176 0.1609 11.7983 0.446915 12.0794L3.35725 14.9356C3.64356 15.2163 4.03169 15.3743 4.4366 15.375H6.56596C6.97024 15.3743 7.35782 15.2168 7.64403 14.9369L10.5544 12.0794C10.8399 11.7981 11.0002 11.4174 11 11.0206V8.75622C10.9998 8.35954 10.8394 7.97908 10.5537 7.69809L3.16854 0.453058C3.13035 0.415754 3.08115 0.390318 3.02829 0.379933ZM3.99925 8.19372C4.12066 8.19376 4.23711 8.24095 4.32312 8.32497L5.50128 9.48122L6.67689 8.32497C6.71922 8.28304 6.76961 8.24975 6.82514 8.22703C6.88068 8.20431 6.94026 8.19262 7.00044 8.19262C7.06061 8.19262 7.12019 8.20431 7.17573 8.22703C7.23127 8.24975 7.28165 8.28304 7.32398 8.32497L8.16553 9.1506C8.2517 9.2347 8.30031 9.34889 8.30068 9.4681V10.3469C8.30064 10.4659 8.25251 10.58 8.1668 10.6644L5.82068 12.9769C5.77805 13.0187 5.72741 13.0519 5.67168 13.0746C5.61594 13.0972 5.5562 13.1089 5.49586 13.1089C5.43552 13.1089 5.37577 13.0972 5.32004 13.0746C5.2643 13.0519 5.21367 13.0187 5.17103 12.9769L2.83256 10.6644C2.74741 10.5802 2.69952 10.4666 2.69932 10.3481V9.4681C2.69888 9.40922 2.71057 9.35087 2.73368 9.29653C2.7568 9.24218 2.79086 9.19298 2.83384 9.15185L3.67538 8.32559C3.71748 8.28331 3.76789 8.24983 3.82355 8.22716C3.87921 8.2045 3.93898 8.19312 3.99925 8.19372Z" fill="#DDDDDD"/>
</svg>
