<svg width="22" height="22" viewBox="0 0 22 22" fill="none" xmlns="http://www.w3.org/2000/svg">
<mask id="mask0_247_20848" style="mask-type:alpha" maskUnits="userSpaceOnUse" x="0" y="0" width="22" height="22">
<path d="M0.00366211 0H21.9964V21.2344H0.00366211V0Z" fill="#35B2EC"/>
</mask>
<g mask="url(#mask0_247_20848)">
<path fill-rule="evenodd" clip-rule="evenodd" d="M18.2722 5.25452C18.106 5.42073 17.9061 5.50497 17.6699 5.50497H4.33208C4.09355 5.50497 3.89402 5.42073 3.72975 5.25452C3.56511 5.08831 3.48185 4.88605 3.48185 4.64509C3.48185 4.40565 3.56511 4.19808 3.72975 4.02618C3.89402 3.85541 4.09355 3.76776 4.33208 3.76776H17.6699C17.9061 3.76776 18.106 3.85541 18.2722 4.02618C18.4365 4.19808 18.5197 4.40565 18.5197 4.64509C18.5197 4.88605 18.4365 5.08831 18.2722 5.25452ZM18.2722 9.1327C18.106 9.29891 17.9061 9.38125 17.6699 9.38125L7.06729 9.38315C6.83064 9.38315 6.62736 9.30081 6.45747 9.1327C6.2872 8.96801 6.20206 8.76234 6.20206 8.521C6.20206 8.28345 6.2872 8.07778 6.45747 7.90588C6.62736 7.73208 6.83064 7.64594 7.06729 7.64594H17.6699C17.9061 7.64594 18.106 7.73208 18.2722 7.90588C18.4365 8.07626 18.5197 8.28345 18.5197 8.521C18.5197 8.76234 18.4365 8.96611 18.2722 9.1327ZM18.2722 12.9718C18.106 13.1437 17.9061 13.2279 17.6699 13.2279H11.488C11.2494 13.2279 11.0499 13.1437 10.8856 12.9718C10.7191 12.7976 10.6381 12.5938 10.6381 12.3525C10.6381 12.1131 10.7191 11.9112 10.8856 11.7431C11.0499 11.5784 11.2494 11.4922 11.488 11.4922H17.6699C17.9061 11.4922 18.106 11.5765 18.2722 11.7431C18.4365 11.9112 18.5197 12.1131 18.5197 12.3525C18.5197 12.5938 18.4365 12.7976 18.2722 12.9718ZM21.8411 0H0.160807C0.0576688 0 0.00366211 0.0542642 0.00366211 0.157101V19.0152C0.00366211 19.131 0.0576688 19.1871 0.160807 19.1871H2.81651L12.909 19.1852L13.2953 19.3742L15.984 20.9054L16.5552 21.2344V20.9054V19.1852H18.2722H21.8411C21.9443 19.1852 21.9964 19.131 21.9964 19.0152V6.53523V4.64509V0.157101C21.9964 0.0542642 21.9443 0 21.8411 0Z" fill="white"/>
</g>
</svg>
