<svg width="23" height="23" viewBox="0 0 23 23" fill="none" xmlns="http://www.w3.org/2000/svg">
<g id="ic_dashboard">
<g id="Home">
<path id="Home_2" d="M9.04543 19.5401V16.729C9.04541 16.0139 9.63894 15.4329 10.3743 15.4281H13.068C13.8069 15.4281 14.4058 16.0105 14.4058 16.729V16.729V19.5489C14.4057 20.1559 14.904 20.6521 15.5282 20.6663H17.324C19.1141 20.6663 20.5654 19.2553 20.5654 17.5147V17.5147V9.51769C20.5558 8.83293 20.2251 8.18991 19.6675 7.77162L13.5259 2.9612C12.45 2.12361 10.9205 2.12361 9.84455 2.9612L3.72992 7.78035C3.17014 8.19695 2.83893 8.84104 2.83203 9.52642V17.5147C2.83203 19.2553 4.28325 20.6663 6.07341 20.6663H7.8692C8.50889 20.6663 9.02747 20.1621 9.02747 19.5401V19.5401" stroke="#F8F8F8" stroke-width="1.5" stroke-linecap="round" stroke-linejoin="round"/>
</g>
</g>
</svg>
