<svg width="694" height="68" viewBox="0 0 694 68" fill="none" xmlns="http://www.w3.org/2000/svg">
<g clip-path="url(#clip0_312_2119)">
<path d="M29.9018 16.2542C25.3869 16.2542 21.8855 18.0192 19.3976 21.5475C16.908 25.0775 15.6649 29.9084 15.6649 36.0402C15.6649 42.1719 16.8497 47.1625 19.2245 50.4896C21.5976 53.8166 25.3021 55.4802 30.3362 55.4802C32.9406 55.4802 35.5151 55.1475 38.0629 54.482C40.6091 53.8183 43.3 52.9632 46.1358 51.9219V64.4183C43.3583 65.5761 40.5924 66.4145 37.8449 66.9352C35.0957 67.4559 32.1002 67.7171 28.86 67.7171C22.2616 67.7171 16.8797 66.3862 12.7126 63.7246C8.54554 61.0646 5.4635 57.3616 3.4665 52.6172C1.47116 47.8712 0.472656 42.3167 0.472656 35.952C0.472656 29.5874 1.60096 24.1792 3.85758 19.3766C6.11419 14.5757 9.44253 10.8145 13.8409 8.09459C18.2393 5.37639 23.6212 4.01562 29.9884 4.01562C32.9972 4.01562 36.1092 4.37827 39.321 5.10024C42.5329 5.82388 45.6149 6.9085 48.5671 8.3541L43.9657 20.1568C41.6508 19.1155 39.3343 18.2038 37.0211 17.4237C34.7063 16.6418 32.3332 16.2525 29.9018 16.2525V16.2542Z" fill="white"/>
<path d="M79.1251 4.88574C87.7488 4.88574 94.0859 6.13006 98.1365 8.61703C102.187 11.1057 104.214 15.0682 104.214 20.5063C104.214 24.2675 103.272 27.3184 101.393 29.6623C99.5111 32.0062 97.2395 33.4369 94.5785 33.9575V34.3917C96.4307 34.7976 98.1948 35.5063 99.8739 36.5177C101.551 37.5308 102.926 39.0213 103.998 40.9876C105.068 42.9556 105.604 45.559 105.604 48.7979C105.604 54.4688 103.533 58.8938 99.3963 62.0745C95.2575 65.2568 89.5993 66.8471 82.4234 66.8471H58.8105V4.88574H79.1251ZM80.0803 29.0967C83.3787 29.0967 85.6935 28.5045 87.0249 27.3184C88.3562 26.134 89.0219 24.5287 89.0219 22.5025C89.0219 18.51 85.8383 16.5155 79.4729 16.5155H73.5701V29.0984H80.082L80.0803 29.0967ZM73.5701 40.3788V55.0444H80.949C84.4221 55.0444 86.8368 54.3507 88.1981 52.9617C89.5577 51.5726 90.2384 49.7511 90.2384 47.4953C90.2384 45.4708 89.5444 43.779 88.1548 42.4182C86.7653 41.0591 84.2474 40.3788 80.6012 40.3788H73.5701Z" fill="white"/>
<path d="M143.801 66.8471L129.911 20.0721H129.563C129.619 21.2299 129.721 22.8918 129.867 25.0627C130.01 27.2319 130.142 29.5625 130.258 32.0478C130.373 34.5364 130.432 36.8205 130.432 38.9032V66.8471H117.236V4.88574H137.203L151.006 50.7059H151.353L165.59 4.88574H185.471V66.8471H171.754V38.5572C171.754 36.5909 171.798 34.4067 171.884 32.0046C171.971 29.6041 172.057 27.3184 172.144 25.1492C172.23 22.9799 172.302 21.3164 172.36 20.1586H172.012L157.689 66.8471H143.798H143.801Z" fill="white"/>
<path d="M229.051 0.286133C231.135 0.286133 232.959 0.750257 234.52 1.67518C236.082 2.60176 236.863 4.39504 236.863 7.05502C236.863 9.715 236.081 11.4368 234.52 12.3916C232.957 13.3465 231.135 13.8239 229.051 13.8239C226.851 13.8239 224.984 13.3465 223.451 12.3916C221.917 11.4368 221.151 9.65844 221.151 7.05502C221.151 4.4516 221.919 2.6001 223.451 1.67518C224.984 0.750257 226.851 0.286133 229.051 0.286133ZM236.255 19.2038V66.8455H221.671V19.2038H236.255Z" fill="white"/>
<path d="M277.232 18.3369C282.268 18.3369 286.333 19.7126 289.429 22.4591C292.524 25.2073 294.073 29.6489 294.073 35.7807V66.8487H279.488V39.8596C279.488 36.5625 278.938 34.0755 277.839 32.397C276.739 30.7202 275.004 29.8801 272.63 29.8801C269.099 29.8801 266.698 31.196 265.425 33.8293C264.151 36.4627 263.514 40.2372 263.514 45.1546V66.8503H248.843V19.2036C253.2 19.162 257.556 19.1204 261.913 19.0788C261.926 21.1749 261.938 23.2693 261.951 25.3653H262.645C264.15 23.0513 266.175 21.3013 268.723 20.1152C271.269 18.9308 274.105 18.3369 277.23 18.3369H277.232Z" fill="white"/>
<path d="M328.017 56.0861C329.463 56.0861 330.838 55.943 332.141 55.6519C333.443 55.3625 334.759 54.9882 336.092 54.5241V65.2854C334.529 65.9791 332.735 66.558 330.71 67.0205C328.683 67.4829 326.283 67.7142 323.504 67.7142C320.552 67.7142 317.932 67.2367 315.648 66.2819C313.361 65.327 311.567 63.6934 310.266 61.3795C308.964 59.0655 308.312 55.7967 308.312 51.573V30.1384H302.234C302.271 26.5818 302.308 23.0235 302.344 19.4669C304.739 19.437 307.134 19.4087 309.527 19.3787C309.533 16.0018 309.54 12.6248 309.547 9.24951C313.997 9.27114 318.447 9.2911 322.897 9.31273V19.2057H335.571V30.1401H322.897V51.0539C322.897 52.7324 323.359 53.9901 324.286 54.8285C325.212 55.6686 326.456 56.0861 328.019 56.0861H328.017Z" fill="white"/>
<path d="M557.114 56.0861C558.56 56.0861 559.935 55.943 561.238 55.6519C562.539 55.3625 563.856 54.9882 565.189 54.5241V65.2854C563.626 65.9791 561.832 66.558 559.807 67.0205C557.78 67.4829 555.38 67.7142 552.601 67.7142C549.649 67.7142 547.029 67.2367 544.744 66.2819C542.458 65.327 540.664 63.6934 539.362 61.3795C538.061 59.0655 537.409 55.7967 537.409 51.573V30.1384H531.331C531.368 26.5818 531.404 23.0235 531.441 19.4669C533.836 19.437 536.23 19.4087 538.623 19.3787C538.63 16.0018 538.637 12.6248 538.643 9.24951C543.093 9.27114 547.543 9.2911 551.993 9.31273V19.2057H564.668V30.1401H551.993V51.0539C551.993 52.7324 552.456 53.9901 553.383 54.8285C554.308 55.6686 555.553 56.0861 557.116 56.0861H557.114Z" fill="white"/>
<path d="M365.695 18.3369C372.408 18.3369 377.732 20.1734 381.669 23.8482C385.605 27.5229 387.572 32.9161 387.572 40.0326V46.8015H357.447C357.562 49.9256 358.576 52.4143 360.486 54.2641C362.397 56.1156 365.116 57.0405 368.647 57.0405C371.656 57.0405 374.42 56.7511 376.938 56.1722C379.456 55.5949 382.045 54.6683 384.708 53.3957V64.2436C382.335 65.458 379.832 66.3413 377.199 66.8903C374.565 67.4392 371.31 67.7154 367.432 67.7154C362.628 67.7154 358.361 66.847 354.627 65.112C350.894 63.3769 347.97 60.7003 345.858 57.0854C343.745 53.4706 342.689 48.8843 342.689 43.3314C342.689 37.7786 343.645 33.0625 345.554 29.3594C347.464 25.6581 350.14 22.895 353.583 21.0718C357.026 19.2502 361.062 18.3386 365.693 18.3386L365.695 18.3369ZM365.955 28.4894C363.698 28.4894 361.831 29.1981 360.355 30.6154C358.879 32.0344 357.997 34.2752 357.707 37.341H374.114C374.056 34.8541 373.362 32.7564 372.03 31.0496C370.699 29.3445 368.674 28.4894 365.953 28.4894H365.955Z" fill="white"/>
<path d="M425.162 18.3371C425.914 18.3371 426.753 18.3804 427.68 18.4669C428.605 18.5534 429.329 18.6548 429.85 18.7713L428.635 32.4821C428.114 32.3673 427.448 32.2658 426.638 32.1777C425.828 32.0912 424.931 32.0479 423.947 32.0479C422.095 32.0479 420.258 32.3374 418.434 32.9163C416.61 33.4952 415.105 34.5798 413.919 36.1701C412.732 37.7621 412.138 40.0312 412.138 42.9823V66.8472H397.467V19.2038C401.875 19.2138 406.285 19.2238 410.694 19.2338C410.712 21.8272 410.73 24.4206 410.749 27.0141H411.356C412.746 24.6419 414.654 22.6024 417.086 20.8956C419.517 19.1905 422.208 18.3354 425.159 18.3354L425.162 18.3371Z" fill="white"/>
<path d="M457.11 18.2485C463.302 18.2485 468.105 19.6958 471.522 22.587C474.937 25.4799 476.644 29.7036 476.644 35.2564V66.8451H466.488L463.622 60.4239H463.274C461.247 63.0274 459.107 64.8938 456.85 66.0217C454.594 67.1496 451.497 67.7135 447.561 67.7135C443.336 67.7135 439.834 66.4709 437.057 63.9822C434.279 61.4952 432.89 57.6475 432.89 52.4407C432.89 47.2338 434.669 43.6622 438.228 41.2019C441.788 38.7432 447.01 37.3708 453.898 37.0797L462.059 36.8202V35.4311C462.059 33.1171 461.465 31.4386 460.28 30.3973C459.094 29.3559 457.459 28.8352 455.376 28.8352C453.292 28.8352 451.122 29.1679 448.864 29.8333C446.607 30.4987 444.321 31.3239 442.006 32.307L437.578 22.587C440.182 21.198 443.134 20.1283 446.433 19.3764C449.731 18.6245 453.291 18.2485 457.11 18.2485ZM457.631 45.3241C453.985 45.4405 451.437 46.091 449.991 47.2771C448.543 48.4632 447.821 50.0685 447.821 52.093C447.821 53.8863 448.341 55.1888 449.383 55.999C450.425 56.8091 451.756 57.2133 453.377 57.2133C455.809 57.2133 457.862 56.4764 459.541 55.0008C461.219 53.5253 462.059 51.5157 462.059 48.9689V45.1511L457.631 45.3241Z" fill="white"/>
<path d="M509.457 67.7139C502.279 67.7139 496.666 65.7609 492.616 61.8566C488.563 57.9523 486.538 51.7474 486.538 43.2418C486.538 37.4577 487.565 32.7283 489.62 29.0536C491.674 25.3805 494.524 22.6756 498.171 20.9389C501.817 19.2038 505.984 18.3354 510.672 18.3354C513.797 18.3354 516.62 18.6548 519.136 19.2903C521.654 19.9274 523.895 20.7376 525.864 21.7207L521.61 32.7416C519.583 31.8732 517.705 31.1945 515.967 30.7021C514.232 30.2114 512.464 29.9652 510.672 29.9652C507.72 29.9652 505.433 31.0648 503.814 33.2623C502.193 35.4615 501.382 38.7586 501.382 43.1553C501.382 47.552 502.221 50.8657 503.9 52.9185C505.578 54.973 507.864 55.9994 510.758 55.9994C513.305 55.9994 515.693 55.6384 517.921 54.9147C520.148 54.1928 522.274 53.1647 524.301 51.8339V63.8096C522.333 65.0822 520.191 66.0521 517.878 66.7175C515.563 67.3812 512.755 67.7156 509.457 67.7156V67.7139Z" fill="white"/>
<path d="M580.818 0.286133C582.901 0.286133 584.724 0.750257 586.286 1.67518C587.849 2.60176 588.629 4.39504 588.629 7.05502C588.629 9.715 587.849 11.4368 586.286 12.3916C584.724 13.3465 582.9 13.8239 580.818 13.8239C578.618 13.8239 576.751 13.3465 575.218 12.3916C573.683 11.4368 572.918 9.65844 572.918 7.05502C572.918 4.4516 573.685 2.6001 575.218 1.67518C576.751 0.750257 578.618 0.286133 580.818 0.286133ZM588.022 19.2038V66.8455H573.437V19.2038H588.022Z" fill="white"/>
<path d="M612.504 66.8473L594.359 19.2056H609.638L618.32 46.8018C618.61 47.7866 618.884 48.986 619.146 50.4033C619.407 51.8223 619.565 53.1082 619.623 54.2644H619.971C620.028 53.05 620.187 51.7774 620.449 50.4466C620.71 49.1158 621.013 47.9297 621.361 46.8883L630.216 19.2056H645.408L627.263 66.8473H612.505H612.504Z" fill="white"/>
<path d="M671.65 18.3369C678.363 18.3369 683.687 20.1734 687.624 23.8482C691.56 27.5229 693.527 32.9161 693.527 40.0326V46.8015H663.402C663.517 49.9256 664.531 52.4143 666.441 54.2641C668.352 56.1156 671.071 57.0405 674.602 57.0405C677.611 57.0405 680.375 56.7511 682.893 56.1722C685.411 55.5949 688 54.6683 690.663 53.3957V64.2436C688.29 65.458 685.787 66.3413 683.154 66.8903C680.52 67.4392 677.265 67.7154 673.387 67.7154C668.583 67.7154 664.316 66.847 660.582 65.112C656.847 63.3769 653.925 60.7003 651.813 57.0854C649.7 53.4706 648.645 48.8843 648.645 43.3314C648.645 37.7786 649.6 33.0625 651.51 29.3594C653.421 25.6581 656.097 22.895 659.54 21.0718C662.983 19.2502 667.019 18.3386 671.65 18.3386V18.3369ZM671.911 28.4894C669.655 28.4894 667.787 29.1981 666.311 30.6154C664.835 32.0344 663.953 34.2752 663.664 37.341H680.071C680.012 34.8541 679.318 32.7564 677.987 31.0496C676.656 29.3445 674.63 28.4894 671.91 28.4894H671.911Z" fill="white"/>
</g>
<defs>
<clipPath id="clip0_312_2119">
<rect width="693.055" height="67.4277" fill="white" transform="translate(0.472656 0.286133)"/>
</clipPath>
</defs>
</svg>
