<svg width="140" height="34" viewBox="0 0 140 34" fill="none" xmlns="http://www.w3.org/2000/svg">
<g clip-path="url(#clip0_312_7130)">
<path d="M15.5652 22.7074C15.553 22.7179 15.5417 22.7276 15.5312 22.7359C15.2607 22.9599 14.9243 23.1331 14.5318 23.2505C13.9631 23.4204 13.3123 23.4476 12.5968 23.3315C11.8562 23.2111 11.1466 22.9557 10.4609 22.7091C10.3246 22.66 10.1879 22.611 10.0508 22.5627C8.91173 22.1618 7.67876 21.8142 6.38204 21.9815C6.01341 22.0293 5.65988 22.1337 5.33276 22.2398L5.29376 22.2524C4.83999 22.3963 4.58249 22.5292 4.52881 22.647C4.51791 22.6714 4.51707 22.6919 4.52672 22.7146C4.59088 22.8643 4.88193 22.8542 5.03836 22.8483L5.0652 22.8475C5.12014 22.8458 5.17507 22.845 5.22959 22.845C5.5047 22.845 5.76807 22.866 5.9958 22.8873C6.76871 22.9607 7.52401 23.1004 8.24073 23.3029C8.6622 23.422 9.07738 23.5651 9.47453 23.7274C9.49592 23.7362 9.51731 23.745 9.5387 23.7538C10.3519 24.0922 11.3265 24.4466 12.3934 24.5057C13.2313 24.5523 14.3116 24.5154 15.2368 23.8079C15.475 23.6254 15.6738 23.4237 15.8264 23.2073C15.834 23.1968 15.8432 23.1843 15.8533 23.17C16.1238 22.7959 16.2177 22.5623 16.1326 22.4759L16.1758 22.4323L16.1326 22.4755C15.9992 22.3422 15.696 22.5984 15.5664 22.7078L15.5652 22.7074Z" fill="white"/>
<path d="M6.4581 20.219C6.47236 20.261 6.49794 20.313 6.53778 20.3205C6.59859 20.3322 6.70805 20.2639 6.79738 20.1582C6.84812 20.0982 6.893 20.0324 6.93661 19.9682C7.03433 19.8248 7.13498 19.6763 7.31279 19.5753C7.51703 19.4591 7.76321 19.4419 8.0249 19.5249C8.30924 19.6155 8.59315 19.72 8.86785 19.821C8.9425 19.8487 9.01714 19.876 9.09179 19.9032C9.2499 19.9607 9.43694 20.0282 9.63027 20.0915C9.82361 20.1549 9.88232 20.1209 9.89993 20.0949C9.90748 20.0844 9.91168 20.0664 9.91252 20.0446C9.91713 19.9062 9.80725 19.7682 9.71038 19.6466L9.68437 19.6134C9.57995 19.4809 9.45036 19.3526 9.28848 19.2209C9.09473 19.0636 8.79907 18.8405 8.47405 18.7193C8.28617 18.6493 8.08864 18.6099 7.88692 18.6027L7.69275 18.5956L7.8215 18.4501C7.90831 18.3524 7.98338 18.2173 8.0337 18.071C8.13855 17.7648 8.1331 17.2402 7.94228 16.9261C7.85295 16.7793 7.73175 16.6937 7.58203 16.6711C7.37906 16.6409 7.20585 16.7239 7.06704 16.9185C6.78396 17.3157 6.75167 18.0102 6.91355 18.3201C6.97478 18.4375 7.05907 18.5122 7.11988 18.5545C7.13078 18.5608 7.14337 18.5679 7.15762 18.5751L7.31741 18.6568L7.15804 18.7386C7.03726 18.8007 6.86196 18.9152 6.71225 19.1085C6.70931 19.1123 6.5034 19.3731 6.44133 19.7732C6.42413 19.8844 6.42036 19.9909 6.43 20.0815C6.43546 20.1322 6.4451 20.1783 6.45894 20.219H6.4581Z" fill="white"/>
<path d="M33.0739 0.676529C32.8986 0.715111 32.3047 0.87783 32.0338 1.36179C31.9399 1.52912 31.8895 1.72497 31.8652 1.81891L31.8413 1.91118L31.7499 1.93802C31.7327 1.94305 31.7172 1.95018 31.7046 1.95857C31.6027 2.02609 31.5008 2.09319 31.3985 2.16071C31.1795 2.30539 30.9606 2.45008 30.7413 2.59392C30.4662 2.77384 30.1676 2.96004 29.8476 3.10095L29.8417 3.10347C29.6501 3.17937 29.4702 3.23054 29.2919 3.2599L29.281 3.26115C29.1409 3.27499 29.0004 3.27499 28.8629 3.26115L28.8512 3.25948C28.7362 3.23976 28.6251 3.20999 28.5207 3.17099L28.5073 3.16554C28.4309 3.12947 28.358 3.08753 28.2904 3.04056L28.277 3.0305C28.2204 2.98227 28.1676 2.92943 28.1193 2.87323L28.1089 2.85981C28.0623 2.79229 28.0199 2.7189 27.9835 2.64173L27.978 2.62915C27.9185 2.47147 27.8757 2.29575 27.8434 2.07599V2.0718C27.8304 1.96905 27.8199 1.86504 27.8098 1.76439C27.7784 1.44944 27.749 1.15168 27.6563 0.869023C27.5528 0.552812 27.416 0.351092 27.2261 0.233666C27.0306 0.112885 26.7782 0.103659 26.4079 0.204309C25.7213 0.390933 25.0235 0.582169 24.3483 0.767114C24.0069 0.860636 23.6651 0.954157 23.3238 1.04768L21.9297 1.42889L20.9593 0.984771L20.8113 0.928155C20.7274 0.896702 20.6431 0.864829 20.5592 0.832957C19.6898 0.50081 18.8943 0.271829 18.1281 0.133854C17.4399 0.00971828 16.8653 -0.0267676 16.3206 0.0176865C15.7494 0.0646567 15.3019 0.196341 14.9123 0.432451C14.6057 0.618235 14.3541 0.885798 14.1645 1.22717C13.9972 1.52912 13.8265 1.83066 13.6613 2.12212C13.5682 2.28652 13.4751 2.45092 13.3824 2.61573C13.2776 2.80235 13.1727 2.9894 13.0683 3.17644L13.0486 3.21209C12.9349 3.41465 12.8217 3.61762 12.7076 3.81976C12.5969 4.01645 12.4854 4.21314 12.3742 4.40983L12.3654 4.42577C12.1662 4.77762 12.0089 5.05651 11.9586 5.14584L11.9418 5.17561C11.8999 5.25026 11.8592 5.32365 11.8198 5.39579C13.1874 5.2901 14.5474 5.4155 15.8668 5.76903C17.1186 6.10453 18.2455 6.5822 19.2155 7.18862C19.7884 7.54677 20.2631 7.92254 20.667 8.33772L20.6817 8.35282C21.2826 8.96846 21.4584 9.32745 21.2688 9.55391C21.1208 9.73089 20.857 9.59292 20.7446 9.5342C20.5722 9.44404 20.3479 9.29851 20.0635 9.11399C19.1208 8.50295 17.5431 7.48051 15.4801 6.95377C15.1945 6.8808 14.0085 6.60192 12.591 6.60192C12.0962 6.60192 11.5732 6.63588 11.0502 6.72437C10.5914 6.80196 9.37232 7.00871 8.06554 7.7682C8.03241 7.7875 7.99927 7.80721 7.96614 7.82692C6.70885 8.5818 5.90574 9.5254 5.61847 9.89655C4.82584 10.9202 4.2752 12.1239 3.98248 13.4743L3.95689 13.5925L3.83695 13.6059C3.41464 13.6538 2.99862 13.7536 2.59979 13.9033L2.59559 13.905C2.59559 13.905 2.4312 13.962 2.29658 14.0283C1.52408 14.409 0.939891 14.9253 0.560773 15.5632C0.0604558 16.4049 -0.105198 17.5376 0.068424 18.9287C0.228626 20.2128 0.660166 21.3602 1.35088 22.3395C1.44105 22.467 1.51612 22.68 1.48173 22.8679C1.30852 23.8102 1.41295 24.7299 1.62264 25.8203C1.73545 26.4062 1.99253 26.9514 2.29196 27.5523C2.38339 27.736 2.73567 28.3982 3.42806 29.2181C3.43896 29.2311 4.55367 30.5404 6.04875 31.4706C9.19408 33.4278 14.529 33.6547 18.1943 31.9873C19.806 31.2538 20.9539 30.2024 21.0021 30.1579C21.603 29.6027 22.1579 28.9275 22.7484 28.0342L22.7937 27.9659L22.8754 27.9591C23.845 27.882 25.3045 27.593 26.7488 26.6549C27.2542 26.3269 28.792 25.3284 29.6551 23.328C29.8845 22.7962 30.9648 20.0438 29.6874 18.082C29.5612 17.8878 29.2814 17.5087 28.8289 17.1493C27.6563 16.2182 26.2791 16.1709 25.5624 16.2258L25.4089 16.2375L25.3837 16.0853C25.2915 15.5326 25.1543 14.9828 24.9753 14.4518C24.797 13.9226 24.5748 13.4034 24.3152 12.9089L24.2812 12.8448L24.3047 12.776C24.6146 11.8731 24.8318 11.249 24.9501 10.9207C24.9543 10.9093 25.0281 10.7043 25.0885 10.5374L25.1975 10.235C25.2697 10.0354 25.3418 9.83616 25.4135 9.63653C25.5045 9.38365 25.5951 9.13034 25.6861 8.87704L25.6945 8.85355C25.7767 8.62373 25.8593 8.39392 25.9419 8.1641C25.9805 8.05632 26.0199 7.94854 26.0594 7.84076L26.0615 7.83489C26.1353 7.63275 26.2116 7.42348 26.2833 7.21547C26.3026 7.16011 26.3223 7.10475 26.342 7.04939L26.3437 7.04478C26.4175 6.83886 26.4938 6.62624 26.5395 6.40103C26.628 5.9632 26.5467 5.50189 26.2909 4.99109C26.0459 4.50167 25.6836 4.04245 25.151 3.54549C24.6339 3.06321 24.0413 2.62118 23.3896 2.23116C23.2697 2.15945 23.1417 2.08522 22.9866 1.99799L22.6293 1.79669L26.2594 0.804439C26.3009 0.793116 26.3429 0.780954 26.3848 0.769211C26.5031 0.735242 26.6251 0.700014 26.7517 0.676948L26.7702 0.674432C26.8021 0.671916 26.8339 0.671496 26.8646 0.672335H26.8839L26.9539 0.691626L26.9858 0.722241C26.9941 0.730209 27.0021 0.738597 27.0101 0.747404L27.0201 0.758307L27.0281 0.770889C27.0529 0.809052 27.0751 0.849312 27.0969 0.893766L27.1028 0.907186C27.1661 1.0741 27.211 1.25863 27.2449 1.48844V1.49264C27.2579 1.59455 27.268 1.69771 27.2781 1.79794C27.3066 2.08857 27.3338 2.36368 27.4123 2.62705C27.5406 3.05817 27.8031 3.39913 28.1516 3.58743C28.4955 3.77321 28.9069 3.84702 29.3099 3.79502C29.5553 3.76315 29.7713 3.70863 29.9705 3.62811C30.2036 3.53375 30.4184 3.42765 30.6268 3.30393C30.9564 3.1085 31.2823 2.88958 31.5977 2.6778C31.7197 2.59602 31.8413 2.51424 31.9638 2.4333C31.9726 2.42743 31.9814 2.42114 31.9894 2.41485L32.0493 2.36872L32.124 2.38298C32.4263 2.44127 32.8742 2.45888 33.2882 2.21061C33.6409 1.99925 33.864 1.71826 33.9525 1.37563C34.02 1.11352 33.9906 0.876572 33.9437 0.704627C33.726 0.644656 33.4198 0.60188 33.0772 0.676948L33.0739 0.676529ZM2.32887 21.0528L2.21606 20.8109C1.90907 20.152 1.54379 19.148 1.54799 18.1067C1.54967 17.6383 1.63312 17.2973 1.67338 17.1333C1.678 17.114 1.68219 17.0977 1.68554 17.0834C1.90027 16.1558 2.48026 15.5695 3.41044 15.3413C3.53919 15.3099 3.68639 15.283 3.80214 15.3673C3.91873 15.452 3.93928 15.6034 3.95018 15.7511L3.9527 15.7859C3.99086 16.3084 4.03028 16.849 4.06551 17.3808C4.07054 17.4575 4.06551 17.5313 4.06006 17.6026C4.05796 17.6324 4.05587 17.663 4.05419 17.6936L4.04412 17.9201L3.83024 17.8454C3.72917 17.8102 3.63146 17.775 3.53542 17.7402C3.31567 17.6609 3.10807 17.5858 2.8988 17.525C2.68995 17.4642 2.6564 17.5099 2.6476 17.5338C2.65137 17.5741 2.71134 17.6861 2.79312 17.7691C2.9961 17.9754 3.21501 18.1759 3.4268 18.3697C3.54045 18.4741 3.6583 18.5819 3.77321 18.6901C3.87931 18.7899 3.93341 18.8926 3.93844 19.0042C3.94767 19.2025 3.80256 19.3397 3.75517 19.3845C3.55219 19.5766 2.97765 20.2669 2.49956 20.8469L2.32971 21.0528H2.32887ZM19.291 25.8664C19.1451 27.1661 18.586 28.3584 17.6743 29.3141C16.6909 30.345 15.4097 31.0491 13.8664 31.406C13.0545 31.5939 12.2757 31.6874 11.5099 31.6874C11.1429 31.6874 10.7789 31.666 10.4153 31.6232C9.06743 31.4647 7.78791 31.0005 6.61281 30.2443C4.9223 29.1565 3.7103 27.7155 3.01078 25.9616C2.53856 24.7777 2.42826 23.6236 2.68366 22.532C3.04642 20.9794 4.19594 19.9784 5.15673 19.2797C5.35678 19.1342 5.37062 19.0574 5.31316 18.8846C5.09676 18.2359 4.97892 17.5624 4.96382 16.883C4.94117 15.8903 5.12822 15.0243 5.53543 14.2354C5.85961 13.6076 6.38593 13.1778 7.01751 13.0251C7.63064 12.8771 8.29116 13.0129 8.82964 13.3979C9.30186 13.7355 9.65833 14.1004 9.92044 14.5131C9.99216 14.6263 10.063 14.7404 10.1373 14.8599C11.205 13.4415 12.5084 12.9987 13.4327 12.8804C14.576 12.7341 15.8026 13.0125 16.7139 13.6252C17.7238 14.3038 18.3839 15.2021 18.6758 16.2946C18.9073 17.1606 18.922 18.0044 18.7186 18.802C18.5336 19.528 18.1679 20.2183 17.6311 20.8557C17.7125 20.9685 17.7947 21.0788 17.8744 21.1858C18.1017 21.4907 18.316 21.7788 18.4959 22.095C19.1618 23.2676 19.437 24.5718 19.2914 25.8669L19.291 25.8664ZM26.1613 17.8429C26.8839 17.9431 27.4655 18.2409 27.8899 18.7286C28.3328 19.2378 28.5777 19.9268 28.618 20.7773C28.6566 21.6551 28.3483 22.6725 27.7943 23.4986C27.0218 24.6503 25.9528 25.4613 24.6175 25.9084C24.5479 25.9319 24.4833 25.9436 24.4242 25.9436C24.246 25.9436 24.113 25.8384 24.0203 25.6253C23.8773 25.2969 23.718 24.9673 23.5641 24.6482C23.4684 24.4502 23.3695 24.2456 23.2751 24.0426C23.2428 23.973 23.174 23.796 23.2336 23.6505C23.7402 22.4078 24.4695 21.5087 25.463 20.9023C25.614 20.8104 25.7704 20.7266 25.9218 20.6456C26.0942 20.5534 26.2724 20.4582 26.4364 20.3529C26.519 20.3 26.5936 20.1965 26.5974 20.1591C26.5962 20.1365 26.5928 20.061 26.35 20.0321C26.2971 20.0258 26.238 20.0287 26.1768 20.0325C24.9434 20.1101 23.9277 20.6217 23.1573 21.5523C23.0025 21.7389 22.862 21.9486 22.7257 22.1508C22.6762 22.2246 22.6267 22.298 22.5764 22.3709C22.5005 22.4808 22.4041 22.5957 22.2623 22.6142C22.1151 22.6339 21.9939 22.5429 21.8924 22.4565C21.7121 22.3034 21.4969 22.1545 21.252 22.0145C21.1682 21.9667 20.9459 21.8396 21.0805 21.5443C21.1505 21.3913 21.2176 21.2323 21.2826 21.0788C21.4047 20.7911 21.5309 20.4934 21.6827 20.2111C22.6079 18.4955 24.3244 17.5879 26.1617 17.8421L26.1613 17.8429Z" fill="white"/>
<path d="M12.481 18.3928C12.5007 18.3824 12.52 18.3719 12.5385 18.3622C12.8266 18.192 13.1176 18.1026 13.4041 18.0976C13.4125 18.0976 13.4221 18.0976 13.4322 18.0976C13.6305 18.0976 14.1912 18.1332 14.7402 18.4935C14.7515 18.501 14.7637 18.509 14.7763 18.5174C14.9105 18.6071 15.1357 18.7581 15.3496 18.7229C15.389 18.7166 15.4934 18.6994 15.5257 18.6273C15.5303 18.6176 15.5433 18.579 15.5265 18.496C15.5001 18.3647 15.4263 18.275 15.3726 18.2096L15.3651 18.2003C14.9994 17.7537 14.5163 17.4803 13.9296 17.3876C13.3395 17.2945 12.7754 17.4136 12.2525 17.7424C12.0507 17.869 11.8998 17.9982 11.7907 18.1362C11.6486 18.3169 11.5915 18.465 11.6347 18.5421C11.6762 18.6164 11.865 18.5916 11.966 18.5782C12.1908 18.5484 12.351 18.462 12.4802 18.3928H12.481Z" fill="white"/>
<path d="M40.753 14.2927C39.8056 14.2927 39.0705 14.6635 38.5483 15.4041C38.0258 16.1451 37.7649 17.1596 37.7649 18.4471C37.7649 19.7346 38.0136 20.7826 38.5119 21.4809C39.0097 22.1796 39.7872 22.5285 40.844 22.5285C41.3905 22.5285 41.931 22.4589 42.4657 22.3188C43 22.1791 43.5649 22.0001 44.1605 21.7811V24.4048C43.5775 24.648 42.9971 24.8237 42.4205 24.9332C41.8434 25.0426 41.2147 25.0972 40.5345 25.0972C39.1497 25.0972 38.0199 24.8179 37.1455 24.2593C36.2711 23.7006 35.624 22.9231 35.2051 21.9271C34.7861 20.9311 34.5764 19.7652 34.5764 18.4286C34.5764 17.0921 34.8134 15.9568 35.2868 14.9486C35.7607 13.9405 36.459 13.1512 37.3821 12.58C38.3051 12.0092 39.4349 11.7236 40.771 11.7236C41.4026 11.7236 42.0556 11.7995 42.73 11.9514C43.4043 12.1032 44.051 12.3313 44.6704 12.6345L43.7046 15.1126C43.2185 14.8941 42.7325 14.7025 42.2468 14.5385C41.7608 14.3745 41.263 14.2923 40.7526 14.2923L40.753 14.2927Z" fill="white"/>
<path d="M51.0839 11.9058C52.8935 11.9058 54.2238 12.167 55.0743 12.6892C55.9243 13.2117 56.3496 14.0437 56.3496 15.1853C56.3496 15.975 56.1521 16.6158 55.7574 17.1077C55.3624 17.5997 54.8855 17.9003 54.3269 18.0098V18.1008C54.7157 18.1859 55.086 18.3348 55.4383 18.547C55.7906 18.7597 56.0787 19.0725 56.3039 19.4856C56.5287 19.8987 56.6411 20.4451 56.6411 21.1254C56.6411 22.316 56.2066 23.2453 55.3385 23.913C54.4699 24.581 53.2823 24.9153 51.7763 24.9153H46.8201V11.9058H51.0839ZM51.2843 16.9895C51.9767 16.9895 52.4624 16.8649 52.7421 16.6158C53.0214 16.3671 53.1611 16.0299 53.1611 15.6047C53.1611 14.7663 52.493 14.3474 51.1568 14.3474H49.918V16.9895H51.2848H51.2843ZM49.918 19.3581V22.4372H51.4668C52.1956 22.4372 52.7027 22.2916 52.9883 21.9998C53.2735 21.7083 53.4165 21.3254 53.4165 20.8519C53.4165 20.4271 53.2705 20.0715 52.979 19.7859C52.6876 19.5007 52.1592 19.3577 51.3938 19.3577H49.918V19.3581Z" fill="white"/>
<path d="M64.6584 24.9152L61.7433 15.0942H61.6703C61.6825 15.3375 61.7035 15.6864 61.7341 16.1418C61.7643 16.5973 61.7915 17.0863 61.8159 17.6084C61.8402 18.1309 61.8523 18.6107 61.8523 19.0477V24.9148H59.0828V11.9053H63.2736L66.1707 21.5258H66.2436L69.2317 11.9053H73.4041V24.9148H70.5251V18.9747C70.5251 18.5621 70.5343 18.1033 70.5523 17.5992C70.5704 17.0951 70.5888 16.6153 70.6068 16.1599C70.6249 15.7044 70.64 15.3555 70.6526 15.1123H70.5796L67.5731 24.9148H64.6576L64.6584 24.9152Z" fill="white"/>
<path d="M84.209 14.73C84.8649 14.73 85.4236 14.8575 85.8853 15.1125C86.3466 15.3674 86.7295 15.7201 87.0331 16.1693H87.1061C87.1086 15.7424 87.1107 15.3154 87.1132 14.8885C88.0644 14.8965 89.0155 14.9044 89.9667 14.912V24.9334C89.9667 26.3547 89.5385 27.4354 88.6821 28.1769C87.8257 28.9175 86.5349 29.2883 84.8104 29.2883C84.0572 29.2883 83.377 29.2455 82.7697 29.1608C82.162 29.0756 81.567 28.9238 80.984 28.7053V26.2092C81.6034 26.4642 82.2107 26.6554 82.8062 26.7833C83.4013 26.9108 84.0694 26.9746 84.8104 26.9746C86.2069 26.9746 86.9056 26.3367 86.9056 25.0614V24.8609C86.9056 24.691 86.9149 24.4935 86.9329 24.2687C86.9509 24.0439 86.9723 23.8288 86.9966 23.622H86.9056C86.6142 24.0959 86.2405 24.46 85.7851 24.7154C85.3296 24.9703 84.7857 25.0978 84.1541 25.0978C83.0243 25.0978 82.1285 24.6487 81.4667 23.7495C80.8045 22.8508 80.4736 21.5755 80.4736 19.9231C80.4736 18.2708 80.8108 16.9778 81.4848 16.0787C82.1591 15.18 83.0666 14.7304 84.2086 14.7304L84.209 14.73ZM85.2839 17.1531C84.1541 17.1531 83.5892 18.0946 83.5892 19.9772C83.5892 20.9129 83.7318 21.6019 84.0174 22.0452C84.3026 22.4889 84.737 22.7103 85.32 22.7103C85.9637 22.7103 86.425 22.522 86.7047 22.1454C86.9841 21.7692 87.1237 21.1494 87.1237 20.2867V19.9043C87.1237 18.969 86.987 18.2767 86.7136 17.8271C86.4401 17.3779 85.9633 17.1527 85.2831 17.1527L85.2839 17.1531Z" fill="white"/>
<path d="M97.0905 14.7119C98.3902 14.7119 99.3984 15.0155 100.115 15.6228C100.832 16.2305 101.19 17.117 101.19 18.2829V24.9154C100.274 24.9162 99.3585 24.917 98.4426 24.9183C98.4472 24.4679 98.4523 24.0175 98.4569 23.5671H98.3839C97.9586 24.1135 97.5095 24.5056 97.0356 24.7422C96.5617 24.9791 95.9121 25.0974 95.0859 25.0974C94.1989 25.0974 93.4642 24.8361 92.8812 24.314C92.2983 23.7919 92.0068 22.9837 92.0068 21.8908C92.0068 20.7979 92.3805 20.0477 93.1274 19.5314C93.8743 19.0151 94.9706 18.727 96.4162 18.6658L98.1289 18.6113V18.3198C98.1289 17.8342 98.0044 17.4815 97.7552 17.263C97.5061 17.0445 97.1631 16.935 96.7257 16.935C96.2883 16.935 95.8328 17.0051 95.3589 17.1447C94.885 17.2844 94.4053 17.4576 93.9196 17.6639L92.9903 15.6232C93.5367 15.3318 94.1566 15.107 94.849 14.9489C95.5414 14.7912 96.2883 14.7119 97.0901 14.7119H97.0905ZM97.2 20.397C96.4346 20.4213 95.8999 20.558 95.5967 20.8071C95.2931 21.0563 95.1413 21.3934 95.1413 21.8183C95.1413 22.1949 95.2507 22.4683 95.4692 22.6382C95.6877 22.8084 95.967 22.8931 96.3076 22.8931C96.8175 22.8931 97.2486 22.7384 97.6013 22.4285C97.9536 22.1185 98.1297 21.6966 98.1297 21.1619V20.3601L97.2004 20.3966L97.2 20.397Z" fill="white"/>
<path d="M115.749 14.73C116.89 14.73 117.756 15.0185 118.345 15.5956C118.934 16.1726 119.229 17.1049 119.229 18.3924V24.9154H116.168V19.2488C116.168 18.5199 116.055 17.9885 115.83 17.6543C115.606 17.3205 115.263 17.1531 114.801 17.1531C114.157 17.1531 113.701 17.4056 113.434 17.9093C113.167 18.4134 113.033 19.1272 113.033 20.0502V24.915H109.972V19.2484C109.972 17.8518 109.523 17.1531 108.624 17.1531C107.944 17.1531 107.479 17.4295 107.23 17.9823C106.981 18.535 106.856 19.3276 106.856 20.3601V24.9154H103.777V14.9124C104.708 14.9044 105.639 14.8965 106.57 14.8889C106.562 15.3159 106.554 15.7428 106.546 16.1697H106.674C106.953 15.7084 107.351 15.3528 107.867 15.1036C108.383 14.855 108.969 14.73 109.626 14.73C111.059 14.73 112.061 15.2039 112.632 16.1513H112.814C113.13 15.6774 113.549 15.3221 114.071 15.0852C114.594 14.8482 115.153 14.73 115.748 14.73H115.749Z" fill="white"/>
<path d="M126.096 14.73C127.505 14.73 128.622 15.1158 129.449 15.887C130.274 16.6587 130.687 17.791 130.687 19.2853V20.7065H124.365C124.389 21.3624 124.602 21.885 125.003 22.2733C125.404 22.6621 125.974 22.8563 126.715 22.8563C127.347 22.8563 127.927 22.7955 128.455 22.6743C128.984 22.5531 129.527 22.3585 130.086 22.0913V24.369C129.588 24.6239 129.062 24.8093 128.51 24.9246C127.957 25.04 127.274 25.0978 126.46 25.0978C125.451 25.0978 124.556 24.9158 123.773 24.5514C122.989 24.1869 122.376 23.6254 121.932 22.8659C121.489 22.1068 121.267 21.1439 121.267 19.9781C121.267 18.8122 121.468 17.8221 121.869 17.0445C122.27 16.2674 122.831 15.687 123.554 15.3045C124.277 14.9221 125.124 14.7304 126.096 14.7304V14.73ZM126.151 16.8617C125.677 16.8617 125.285 17.0106 124.976 17.3079C124.666 17.6057 124.481 18.0762 124.42 18.7199H127.864C127.852 18.1978 127.706 17.7575 127.427 17.3989C127.147 17.0408 126.722 16.8613 126.151 16.8613L126.151 16.8617Z" fill="white"/>
<path d="M140 21.8904C140 22.8743 139.656 23.6552 138.97 24.2318C138.284 24.8089 137.212 25.0974 135.755 25.0974C135.05 25.0974 134.434 25.0546 133.905 24.9699C133.377 24.8852 132.845 24.733 132.311 24.5145V22.0364C132.894 22.3039 133.501 22.5073 134.133 22.6466C134.764 22.7862 135.299 22.8563 135.736 22.8563C136.197 22.8563 136.532 22.7955 136.738 22.6743C136.945 22.5531 137.048 22.3828 137.048 22.1639C137.048 22.0062 136.996 21.8665 136.894 21.7449C136.79 21.6237 136.584 21.487 136.274 21.3348C135.964 21.1829 135.506 20.9795 134.899 20.7246C134.303 20.4696 133.815 20.2083 133.432 19.9412C133.05 19.674 132.764 19.3553 132.576 18.9846C132.387 18.6143 132.293 18.1496 132.293 17.5906C132.293 16.6432 132.661 15.9298 133.396 15.4496C134.131 14.9699 135.106 14.73 136.32 14.73C136.964 14.73 137.571 14.7971 138.143 14.9304C138.713 15.0642 139.303 15.2706 139.91 15.5499L139.035 17.627C138.537 17.4085 138.054 17.2324 137.587 17.0986C137.119 16.9653 136.697 16.8982 136.32 16.8982C135.616 16.8982 135.263 17.0802 135.263 17.4446C135.263 17.5784 135.315 17.7029 135.418 17.8183C135.521 17.934 135.722 18.0582 136.02 18.1919C136.317 18.3257 136.751 18.514 137.322 18.7568C137.893 18.9879 138.379 19.2337 138.78 19.4949C139.181 19.7562 139.485 20.0754 139.691 20.4516C139.897 20.8282 140.001 21.3079 140.001 21.8909L140 21.8904Z" fill="white"/>
</g>
<defs>
<clipPath id="clip0_312_7130">
<rect width="140" height="33.1027" fill="white"/>
</clipPath>
</defs>
</svg>
