<svg width="10" height="10" viewBox="0 0 10 10" fill="none" xmlns="http://www.w3.org/2000/svg">
<path fill-rule="evenodd" clip-rule="evenodd" d="M0.000159996 5.03348C-0.0214659 2.29228 2.15194 0.0484737 4.86599 0.0263672C7.53679 0.0263672 9.71019 2.24807 9.73182 4.96717C9.74263 6.29355 9.23442 7.54257 8.32613 8.49315C7.41785 9.44373 6.19598 9.96323 4.89843 9.97428H4.86599C2.19519 9.97428 0.0217859 7.75258 0.000159996 5.03348ZM4.88762 9.31109C6.01217 9.30004 7.07184 8.84686 7.86118 8.02891C8.65053 7.21098 9.08305 6.12776 9.08305 4.97822C9.06142 2.62388 7.17997 0.700616 4.84437 0.700616C2.51959 0.722722 0.648945 2.65704 0.659758 5.03349C0.670571 7.38783 2.56284 9.31109 4.866 9.31109H4.88762Z" fill="#787878"/>
<path fill-rule="evenodd" clip-rule="evenodd" d="M7.05843 3.14103C7.18769 3.00891 7.40031 3.00891 7.52957 3.14103C7.65487 3.26912 7.65487 3.47384 7.52957 3.60193L5.00248 6.18518L4.54147 5.71393L7.05843 3.14103Z" fill="#787878"/>
<path fill-rule="evenodd" clip-rule="evenodd" d="M4.54144 2.01055C4.54144 1.83052 4.68739 1.68457 4.86742 1.68457C5.04746 1.68457 5.1934 1.83052 5.1934 2.01055V5.85824C5.1934 5.94144 5.16159 6.0215 5.10448 6.082C4.90201 6.29651 4.54144 6.15322 4.54144 5.85824V2.01055Z" fill="#787878"/>
</svg>
