<svg width="10" height="11" viewBox="0 0 10 11" fill="none" xmlns="http://www.w3.org/2000/svg">
<path fill-rule="evenodd" clip-rule="evenodd" d="M0.000159996 5.533C-0.0214659 2.79179 2.15194 0.547985 4.86599 0.525879C7.53679 0.525879 9.71019 2.74758 9.73182 5.46668C9.74263 6.79307 9.23442 8.04208 8.32613 8.99266C7.41785 9.94324 6.19598 10.4627 4.89843 10.4738H4.86599C2.19519 10.4738 0.0217859 8.25209 0.000159996 5.533ZM4.88762 9.8106C6.01217 9.79955 7.07184 9.34637 7.86118 8.52843C8.65053 7.71049 9.08305 6.62727 9.08305 5.47773C9.06142 3.12339 7.17997 1.20013 4.84437 1.20013C2.51959 1.22223 0.648945 3.15655 0.659758 5.533C0.670571 7.88734 2.56284 9.8106 4.866 9.8106H4.88762Z" fill="#CCCCCC"/>
<path fill-rule="evenodd" clip-rule="evenodd" d="M7.05846 3.64055C7.18772 3.50842 7.40034 3.50842 7.5296 3.64055C7.6549 3.76863 7.6549 3.97336 7.5296 4.10144L5.00251 6.68469L4.5415 6.21344L7.05846 3.64055Z" fill="#CCCCCC"/>
<path fill-rule="evenodd" clip-rule="evenodd" d="M4.5415 2.51006C4.5415 2.33003 4.68745 2.18408 4.86748 2.18408C5.04752 2.18408 5.19346 2.33003 5.19346 2.51006V6.35776C5.19346 6.44096 5.16165 6.52101 5.10454 6.58151C4.90207 6.79602 4.5415 6.65273 4.5415 6.35776V2.51006Z" fill="#CCCCCC"/>
</svg>
